# xmcd
# Track frame offsets:
# 150
# 26819
# 53480
# 72901
# 101907
#
# Disc length: 1703 seconds
# Revision: 0
# Processed by: cddbd v1.5.1PL0 Copyright (c) Steve Scherf et al.
# Submitted via: VisiTrax 2.9.9.202 - For more info visit www.synapsa.com
#
DISCID=3f06a505
DTITLE=Freaked out Hippies - At the rock bottom
DYEAR=2004
DGENRE=Blues - rock
TTITLE0=Born under a bad sign
TTITLE1=The prize
TTITLE2=Celler Man
TTITLE3=Shai
TTITLE4=The Reason why
EXTD=
EXTT0=
EXTT1=
EXTT2=
EXTT3=
EXTT4=
PLAYORDER=
